# xmcd CD database file
#
# Track frame offsets:
#	150
#	17677
#	34427
#	50092
#	66682
#	86432
#	105350
#	120415
#	138602
#	163675
#	180442
#	197752
#
# Disc length: 2862 seconds
#
# Revision: 0
# Processed by: cddbd v1.5.1PL2 Copyright (c) Steve Scherf et al.
# Submitted via: CDex 1.51
#
DISCID=a60b2c0c
DTITLE=LULLACRY - Vol.4
DYEAR=2005
DGENRE=Hard Rock
TTITLE0=Perfect Tonight
TTITLE1=Love, Lust, Desire
TTITLE2=Fire Within
TTITLE3=Stranger In You
TTITLE4=Heart Shaped Scars
TTITLE5=Soul In Half
TTITLE6=Killing Time
TTITLE7=I Want You
TTITLE8=King Of Pain
TTITLE9=Zero
TTITLE10=I Stole Your Love
TTITLE11=L.O.V.E. Machine
EXTD=YEAR: 2005
EXTT0=
EXTT1=
EXTT2=
EXTT3=
EXTT4=
EXTT5=
EXTT6=
EXTT7=
EXTT8=
EXTT9=
EXTT10=
EXTT11=
PLAYORDER=
